<svg xmlns="http://www.w3.org/2000/svg" xmlns:xlink="http://www.w3.org/1999/xlink" width="500" zoomAndPan="magnify" viewBox="0 0 375 374.999991" height="500" preserveAspectRatio="xMidYMid meet" version="1.0"><defs><g/></defs><rect x="-37.5" width="450" fill="#ffffff" y="-37.499999" height="449.999989" fill-opacity="1"/><rect x="-37.5" width="450" fill="#f6f4f1" y="-37.499999" height="449.999989" fill-opacity="1"/><g fill="#000000" fill-opacity="1"><g transform="translate(57.527346, 195.23943)"><g><path d="M 15.578125 0.6875 C 10.984375 0.6875 7.707031 -0.707031 5.75 -3.5 C 3.789062 -6.300781 2.8125 -10.269531 2.8125 -15.40625 L 2.8125 -31.046875 C 2.8125 -36.296875 3.875 -40.300781 6 -43.0625 C 8.132812 -45.820312 11.734375 -47.203125 16.796875 -47.203125 C 21.660156 -47.203125 25.144531 -46.015625 27.25 -43.640625 C 29.363281 -41.265625 30.421875 -37.910156 30.421875 -33.578125 L 30.421875 -30.59375 L 20.359375 -30.59375 L 20.359375 -34.390625 C 20.359375 -36.222656 20.144531 -37.609375 19.71875 -38.546875 C 19.300781 -39.492188 18.363281 -39.96875 16.90625 -39.96875 C 15.40625 -39.96875 14.4375 -39.445312 14 -38.40625 C 13.5625 -37.375 13.34375 -35.9375 13.34375 -34.09375 L 13.34375 -12.53125 C 13.34375 -10.695312 13.617188 -9.25 14.171875 -8.1875 C 14.722656 -7.132812 15.726562 -6.609375 17.1875 -6.609375 C 19.875 -6.609375 21.21875 -8.625 21.21875 -12.65625 L 21.21875 -18.109375 L 17.015625 -18.109375 L 17.015625 -24.15625 L 30.46875 -24.15625 L 30.46875 0 L 23.6875 0 L 23.109375 -3.859375 C 21.660156 -0.828125 19.148438 0.6875 15.578125 0.6875 Z M 15.578125 0.6875 "/></g></g></g><g fill="#000000" fill-opacity="1"><g transform="translate(90.987842, 195.23943)"><g><path d="M 3.453125 -46.578125 L 16.265625 -46.578125 C 21.367188 -46.578125 25.222656 -45.675781 27.828125 -43.875 C 30.429688 -42.070312 31.734375 -38.867188 31.734375 -34.265625 C 31.734375 -31.160156 31.332031 -28.6875 30.53125 -26.84375 C 29.726562 -25.007812 28.234375 -23.578125 26.046875 -22.546875 L 32.4375 0 L 21.796875 0 L 16.671875 -20.875 L 13.75 -20.875 L 13.75 0 L 3.453125 0 Z M 16.625 -26.796875 C 18.6875 -26.796875 20.128906 -27.34375 20.953125 -28.4375 C 21.773438 -29.53125 22.1875 -31.164062 22.1875 -33.34375 C 22.1875 -35.457031 21.800781 -37.039062 21.03125 -38.09375 C 20.269531 -39.144531 18.953125 -39.671875 17.078125 -39.671875 L 13.75 -39.671875 L 13.75 -26.796875 Z M 16.625 -26.796875 "/></g></g></g><g fill="#000000" fill-opacity="1"><g transform="translate(125.023233, 195.23943)"><g><path d="M 16.796875 0.6875 C 11.765625 0.6875 8.175781 -0.601562 6.03125 -3.1875 C 3.882812 -5.78125 2.8125 -9.601562 2.8125 -14.65625 L 2.8125 -31.96875 C 2.8125 -37.03125 3.882812 -40.832031 6.03125 -43.375 C 8.175781 -45.925781 11.765625 -47.203125 16.796875 -47.203125 C 21.847656 -47.203125 25.457031 -45.914062 27.625 -43.34375 C 29.789062 -40.78125 30.875 -36.988281 30.875 -31.96875 L 30.875 -14.65625 C 30.875 -9.601562 29.789062 -5.78125 27.625 -3.1875 C 25.457031 -0.601562 21.847656 0.6875 16.796875 0.6875 Z M 16.796875 -6.609375 C 18.242188 -6.609375 19.195312 -7.097656 19.65625 -8.078125 C 20.125 -9.054688 20.359375 -10.390625 20.359375 -12.078125 L 20.359375 -34.5 C 20.359375 -36.226562 20.125 -37.570312 19.65625 -38.53125 C 19.195312 -39.488281 18.242188 -39.96875 16.796875 -39.96875 C 15.410156 -39.96875 14.488281 -39.476562 14.03125 -38.5 C 13.570312 -37.519531 13.34375 -36.1875 13.34375 -34.5 L 13.34375 -12.078125 C 13.34375 -10.390625 13.550781 -9.054688 13.96875 -8.078125 C 14.394531 -7.097656 15.335938 -6.609375 16.796875 -6.609375 Z M 16.796875 -6.609375 "/></g></g></g><g fill="#5ac426" fill-opacity="1"><g transform="translate(158.718745, 195.23943)"><g><path d="M 16.796875 0.6875 C 11.734375 0.6875 8.132812 -0.640625 6 -3.296875 C 3.875 -5.960938 2.8125 -9.804688 2.8125 -14.828125 L 2.8125 -31.625 C 2.8125 -36.757812 3.863281 -40.640625 5.96875 -43.265625 C 8.082031 -45.890625 11.691406 -47.203125 16.796875 -47.203125 C 21.660156 -47.203125 25.109375 -46.03125 27.140625 -43.6875 C 29.171875 -41.351562 30.1875 -38.039062 30.1875 -33.75 L 30.1875 -29.734375 L 20.125 -29.734375 L 20.125 -34.390625 C 20.125 -36.191406 19.929688 -37.570312 19.546875 -38.53125 C 19.160156 -39.488281 18.242188 -39.96875 16.796875 -39.96875 C 15.335938 -39.96875 14.375 -39.457031 13.90625 -38.4375 C 13.445312 -37.425781 13.21875 -36.019531 13.21875 -34.21875 L 13.21875 -12.3125 C 13.21875 -10.46875 13.457031 -9.054688 13.9375 -8.078125 C 14.414062 -7.097656 15.367188 -6.609375 16.796875 -6.609375 C 18.210938 -6.609375 19.117188 -7.097656 19.515625 -8.078125 C 19.921875 -9.054688 20.125 -10.46875 20.125 -12.3125 L 20.125 -17.1875 L 30.1875 -17.1875 L 30.1875 -13.171875 C 30.1875 -8.796875 29.171875 -5.390625 27.140625 -2.953125 C 25.109375 -0.523438 21.660156 0.6875 16.796875 0.6875 Z M 16.796875 0.6875 "/></g></g></g><g fill="#5ac426" fill-opacity="1"><g transform="translate(191.08688, 195.23943)"><g><path d="M 3.453125 -46.578125 L 24.375 -46.578125 L 24.375 -39.5625 L 13.75 -39.5625 L 13.75 -28 L 21.84375 -28 L 21.84375 -20.875 L 13.75 -20.875 L 13.75 -6.953125 L 24.5 -6.953125 L 24.5 0 L 3.453125 0 Z M 3.453125 -46.578125 "/></g></g></g><g fill="#5ac426" fill-opacity="1"><g transform="translate(216.785914, 195.23943)"><g><path d="M 3.453125 -46.578125 L 16.265625 -46.578125 C 21.367188 -46.578125 25.222656 -45.675781 27.828125 -43.875 C 30.429688 -42.070312 31.734375 -38.867188 31.734375 -34.265625 C 31.734375 -31.160156 31.332031 -28.6875 30.53125 -26.84375 C 29.726562 -25.007812 28.234375 -23.578125 26.046875 -22.546875 L 32.4375 0 L 21.796875 0 L 16.671875 -20.875 L 13.75 -20.875 L 13.75 0 L 3.453125 0 Z M 16.625 -26.796875 C 18.6875 -26.796875 20.128906 -27.34375 20.953125 -28.4375 C 21.773438 -29.53125 22.1875 -31.164062 22.1875 -33.34375 C 22.1875 -35.457031 21.800781 -37.039062 21.03125 -38.09375 C 20.269531 -39.144531 18.953125 -39.671875 17.078125 -39.671875 L 13.75 -39.671875 L 13.75 -26.796875 Z M 16.625 -26.796875 "/></g></g></g><g fill="#5ac426" fill-opacity="1"><g transform="translate(251.281266, 195.23943)"><g><path d="M 3.453125 -46.578125 L 16.265625 -46.578125 C 21.367188 -46.578125 25.222656 -45.675781 27.828125 -43.875 C 30.429688 -42.070312 31.734375 -38.867188 31.734375 -34.265625 C 31.734375 -31.160156 31.332031 -28.6875 30.53125 -26.84375 C 29.726562 -25.007812 28.234375 -23.578125 26.046875 -22.546875 L 32.4375 0 L 21.796875 0 L 16.671875 -20.875 L 13.75 -20.875 L 13.75 0 L 3.453125 0 Z M 16.625 -26.796875 C 18.6875 -26.796875 20.128906 -27.34375 20.953125 -28.4375 C 21.773438 -29.53125 22.1875 -31.164062 22.1875 -33.34375 C 22.1875 -35.457031 21.800781 -37.039062 21.03125 -38.09375 C 20.269531 -39.144531 18.953125 -39.671875 17.078125 -39.671875 L 13.75 -39.671875 L 13.75 -26.796875 Z M 16.625 -26.796875 "/></g></g></g><g fill="#5ac426" fill-opacity="1"><g transform="translate(285.776617, 195.23943)"><g><path d="M 10 -46.578125 L 21.734375 -46.578125 L 30.421875 0 L 20.9375 0 L 19.375 -9.828125 L 12.53125 -9.828125 L 10.921875 0 L 1.203125 0 Z M 18.40625 -15.984375 L 15.921875 -34.15625 L 13.453125 -15.984375 Z M 18.40625 -15.984375 "/></g></g></g></svg>