<svg width="24" height="24" viewBox="0 0 24 24" fill="none" xmlns="http://www.w3.org/2000/svg">
<path d="M4 8H20C20.5523 8 21 8.44772 21 9V11C21 11.5523 20.5523 12 20 12H4C3.44772 12 3 11.5523 3 11V9C3 8.44772 3.44772 8 4 8Z" stroke-width="2" stroke-linecap="round" stroke-linejoin="round" stroke="black"/>
<path d="M12 8V21M12 8C12 8 11 3 7.5 3C6.83696 3 6.20107 3.26339 5.73223 3.73223C5.26339 4.20107 5 4.83696 5 5.5C5 6.16304 5.26339 6.79893 5.73223 7.26777C6.20107 7.73661 6.83696 8 7.5 8M12 8C12 8 13 3 16.5 3C17.163 3 17.7989 3.26339 18.2678 3.73223C18.7366 4.20107 19 4.83696 19 5.5C19 6.16304 18.7366 6.79893 18.2678 7.26777C17.7989 7.73661 17.163 8 16.5 8M12 21H17C17.5304 21 18.0391 20.7893 18.4142 20.4142C18.7893 20.0391 19 19.5304 19 19V12M12 21H7C6.46957 21 5.96086 20.7893 5.58579 20.4142C5.21071 20.0391 5 19.5304 5 19V12" stroke-width="2" stroke-linecap="round" stroke-linejoin="round" stroke="black"/>
</svg>
