<svg width="24" height="24" viewBox="0 0 24 24" fill="none" xmlns="http://www.w3.org/2000/svg">
<path d="M22 12C22 17.5228 17.5228 22 12 22C6.47715 22 2 17.5228 2 12C2 6.47715 6.47715 2 12 2C17.5228 2 22 6.47715 22 12Z" stroke-width="2" stroke-linecap="round" stroke-linejoin="round" stroke="black"/>
<path d="M9.09998 9.0001C9.34873 8.35173 9.81471 7.80975 10.4185 7.46658C11.0222 7.12342 11.7263 7.00034 12.4106 7.11833C13.095 7.23632 13.7172 7.58808 14.1712 8.1136C14.6251 8.63913 14.8827 9.30586 14.9 10.0001C14.9 12.0001 11.9 13.0001 11.9 13.0001M12 17.0001H12.01" stroke-width="2" stroke-linecap="round" stroke-linejoin="round" stroke="black"/>
</svg>
